<svg xmlns="http://www.w3.org/2000/svg" viewBox="0 0 51.116 125">
  <path d="M51.116 60.238l-9.089-12.492V27.298h-.104C41.708 22.112 39.311 3.505 25.53 0 11.753 3.505 9.355 22.112 9.139 27.298h-.051v20.448L0 60.238v3.41h11.151L9.088 69.33c0 2.507 2.033 4.544 4.544 4.544h23.856c2.507 0 4.544-2.037 4.544-4.544l-2.065-5.682h11.149v-3.41zm-23.852 3.41h-3.408V49.449c0-.939.763-1.703 1.703-1.703.941 0 1.705.764 1.705 1.703v14.199zm6.818-31.806c0 2.509-2.037 4.544-4.546 4.544h-7.952c-2.511 0-4.546-2.035-4.546-4.544V23.89c0-2.509 2.035-4.544 4.546-4.544h7.952c2.509 0 4.546 2.035 4.546 4.544v7.952zM20.879 76.146c1.257 3.884 4.661 9.322 4.661 9.322s3.406-5.438 4.664-9.322h4.647c.202.777.332 1.587.332 2.43 0 5.325-9.643 21.424-9.643 21.424s-9.639-16.099-9.639-21.424c0-.843.125-1.652.33-2.43h4.648z"/>
</svg>
